<svg data-v-423bf9ae="" xmlns="http://www.w3.org/2000/svg" viewBox="0 0 313.54200988467875 60" class="font"><!----><!----><!----><g data-v-423bf9ae="" id="bc920917-e29a-459c-a0d1-7aad556315b5" fill="white" transform="matrix(8.43492603302002,0,0,8.43492603302002,-5.304774284362793,-42.83361053466797)"><path d="M3.54 5.08L3.54 5.08L3.91 5.08L3.91 6.90L2.98 6.90L2.98 6.90Q2.51 6.90 2.51 7.39L2.51 7.39L2.51 12.05L0.63 12.05L0.63 5.22L2.34 5.22L2.34 5.88L2.34 5.88Q2.74 5.08 3.54 5.08ZM6.48 5.08L8.06 5.08L8.06 5.08Q9.80 5.08 9.80 6.93L9.80 6.93L9.80 9.14L6.62 9.14L6.62 10.57L6.62 10.57Q6.62 10.68 6.70 10.77L6.70 10.77L6.70 10.77Q6.78 10.85 6.89 10.85L6.89 10.85L7.66 10.85L7.66 10.85Q7.77 10.85 7.85 10.77L7.85 10.77L7.85 10.77Q7.92 10.68 7.92 10.57L7.92 10.57L7.92 9.81L9.80 9.81L9.80 10.35L9.80 10.35Q9.80 12.19 8.06 12.19L8.06 12.19L6.48 12.19L6.48 12.19Q4.75 12.19 4.75 10.35L4.75 10.35L4.75 6.93L4.75 6.93Q4.75 5.08 6.48 5.08L6.48 5.08ZM6.62 6.65L6.62 7.91L7.92 7.91L7.92 6.65L7.92 6.65Q7.92 6.54 7.85 6.45L7.85 6.45L7.85 6.45Q7.77 6.37 7.66 6.37L7.66 6.37L6.89 6.37L6.89 6.37Q6.78 6.37 6.70 6.45L6.70 6.45L6.70 6.45Q6.62 6.54 6.62 6.65L6.62 6.65ZM12.71 6.71L12.71 12.05L10.84 12.05L10.84 5.22L12.54 5.22L12.54 5.57L12.54 5.57Q12.98 5.08 13.86 5.08L13.86 5.08L14.15 5.08L14.15 5.08Q15.89 5.08 15.89 6.93L15.89 6.93L15.89 12.05L14.01 12.05L14.01 6.71L14.01 6.71Q14.01 6.59 13.94 6.51L13.94 6.51L13.94 6.51Q13.86 6.43 13.75 6.43L13.75 6.43L12.98 6.43L12.98 6.43Q12.87 6.43 12.79 6.51L12.79 6.51L12.79 6.51Q12.71 6.59 12.71 6.71L12.71 6.71ZM20.64 5.73L20.64 5.22L22.22 5.22L22.22 12.05L20.64 12.05L20.64 11.55L20.64 11.55Q20.20 12.19 19.19 12.19L19.19 12.19L18.90 12.19L18.90 12.19Q17.16 12.19 17.16 10.35L17.16 10.35L17.16 6.93L17.16 6.93Q17.16 5.08 18.90 5.08L18.90 5.08L19.19 5.08L19.19 5.08Q20.20 5.08 20.64 5.73L20.64 5.73ZM20.34 10.57L20.34 10.57L20.34 6.71L20.34 6.71Q20.34 6.59 20.27 6.51L20.27 6.51L20.27 6.51Q20.19 6.43 20.08 6.43L20.08 6.43L19.31 6.43L19.31 6.43Q19.19 6.43 19.12 6.51L19.12 6.51L19.12 6.51Q19.04 6.59 19.04 6.71L19.04 6.71L19.04 10.57L19.04 10.57Q19.04 10.68 19.12 10.77L19.12 10.77L19.12 10.77Q19.19 10.85 19.31 10.85L19.31 10.85L20.08 10.85L20.08 10.85Q20.19 10.85 20.27 10.77L20.27 10.77L20.27 10.77Q20.34 10.68 20.34 10.57ZM29.53 5.08L29.65 5.08L29.65 5.08Q31.39 5.08 31.39 6.93L31.39 6.93L31.39 12.05L29.51 12.05L29.51 6.71L29.51 6.71Q29.51 6.59 29.43 6.51L29.43 6.51L29.43 6.51Q29.36 6.43 29.25 6.43L29.25 6.43L28.64 6.43L28.64 6.43Q28.53 6.43 28.45 6.51L28.45 6.51L28.45 6.51Q28.38 6.59 28.38 6.71L28.38 6.71L28.38 12.05L26.50 12.05L26.50 6.71L26.50 6.71Q26.50 6.59 26.42 6.51L26.42 6.51L26.42 6.51Q26.35 6.43 26.24 6.43L26.24 6.43L25.63 6.43L25.63 6.43Q25.52 6.43 25.45 6.51L25.45 6.51L25.45 6.51Q25.37 6.59 25.37 6.71L25.37 6.71L25.37 12.05L23.49 12.05L23.49 5.22L25.20 5.22L25.20 5.57L25.20 5.57Q25.63 5.08 26.52 5.08L26.52 5.08L26.64 5.08L26.64 5.08Q27.68 5.08 28.08 5.73L28.08 5.73L28.08 5.73Q28.52 5.08 29.53 5.08L29.53 5.08ZM34.48 5.08L36.06 5.08L36.06 5.08Q37.80 5.08 37.80 6.93L37.80 6.93L37.80 9.14L34.62 9.14L34.62 10.57L34.62 10.57Q34.62 10.68 34.70 10.77L34.70 10.77L34.70 10.77Q34.78 10.85 34.89 10.85L34.89 10.85L35.66 10.85L35.66 10.85Q35.77 10.85 35.85 10.77L35.85 10.77L35.85 10.77Q35.92 10.68 35.92 10.57L35.92 10.57L35.92 9.81L37.80 9.81L37.80 10.35L37.80 10.35Q37.80 12.19 36.06 12.19L36.06 12.19L34.48 12.19L34.48 12.19Q32.75 12.19 32.75 10.35L32.75 10.35L32.75 6.93L32.75 6.93Q32.75 5.08 34.48 5.08L34.48 5.08ZM34.62 6.65L34.62 7.91L35.92 7.91L35.92 6.65L35.92 6.65Q35.92 6.54 35.85 6.45L35.85 6.45L35.85 6.45Q35.77 6.37 35.66 6.37L35.66 6.37L34.89 6.37L34.89 6.37Q34.78 6.37 34.70 6.45L34.70 6.45L34.70 6.45Q34.62 6.54 34.62 6.65L34.62 6.65Z"></path></g><!----><!----></svg>